<?xml version="1.0" encoding="utf-8"?>
<!-- Generator: Adobe Illustrator 23.0.2, SVG Export Plug-In . SVG Version: 6.00 Build 0)  -->
<svg version="1.1" xmlns="http://www.w3.org/2000/svg" xmlns:xlink="http://www.w3.org/1999/xlink" x="0px" y="0px"
	 viewBox="0 0 171.55 81.16" style="enable-background:new 0 0 171.55 81.16;" xml:space="preserve">
<style type="text/css">
	.st0{fill:#A3A3A3;}
</style>
<g id="Layer_1">
</g>
<g id="Layer_2">
	<g>
		<g>
			<g>
				<path class="st0" d="M60.54,64.92C67.99,57.46,71.72,48.48,71.72,38c0-10.5-3.73-19.44-11.17-26.81
					c-1.76-1.77-3.59-3.34-5.53-4.69C54.03,5.8,53.02,5.19,52,4.62C46.54,1.53,40.45,0,33.73,0H2.16c-0.55,0-1,0.45-1,1v73.99
					c0,0.55,0.45,1,1,1h31.57c6.72,0,12.81-1.52,18.27-4.57c1.02-0.56,2.03-1.19,3.01-1.86C56.95,68.23,58.78,66.68,60.54,64.92z
					 M52,47.69c-0.95,1.77-2.2,3.43-3.73,4.96c-3.99,3.99-8.83,5.97-14.54,5.97h-14.2c-0.55,0-1-0.45-1-1V18.37c0-0.55,0.45-1,1-1
					h14.2c5.64,0,10.48,2.03,14.54,6.08c1.53,1.53,2.78,3.19,3.73,4.96c1.56,2.89,2.35,6.09,2.35,9.59
					C54.35,41.55,53.57,44.78,52,47.69z"/>
			</g>
			<g>
				<path class="st0" d="M143.86,0c-7.61,0-14.44,1.96-20.44,5.88c-0.49,0.32-0.58,1-0.22,1.47c3.58,4.58,5.38,9.95,5.38,15.99
					c0,0.26,0,0.51-0.01,0.77l5.59-6.39c0.19-0.22,0.46-0.34,0.75-0.34l35.08,0c0.55,0,1-0.45,1-1V1c0-0.55-0.45-1-1-1H143.86z"/>
			</g>
			<g>
				<path class="st0" d="M129.19,52.65c-0.21-0.21-0.42-0.44-0.63-0.65c0.01,0.21,0.01,0.44,0.01,0.65c0,6.06-1.81,11.43-5.41,16.03
					c-0.36,0.47-0.28,1.15,0.22,1.47c6.02,3.89,12.84,5.84,20.47,5.84h26.13c0.55,0,1-0.45,1-1V59.62c0-0.55-0.45-1-1-1h-26.13
					C138.05,58.62,133.18,56.63,129.19,52.65z"/>
			</g>
			<g>
				<path class="st0" d="M119.79,38.63c-0.29-0.37-0.29-0.89,0-1.25c3.86-4.84,5.78-9.52,5.78-14.04c0-5.74-1.8-10.75-5.46-15.01
					c-0.44-0.51-0.89-1.01-1.38-1.49C114.17,2.29,108.67,0,102.23,0H56.01c-0.55,0-1,0.45-1,1v1.37c0,0.34,0.17,0.65,0.46,0.83
					c2.55,1.63,4.95,3.58,7.21,5.86c3.26,3.24,5.87,6.77,7.82,10.6c0.47,0.93,1.88,0.59,1.88-0.46v-0.84c0-0.55,0.45-1,1-1h28.85
					c1.67,0,3.08,0.59,4.24,1.74c1.16,1.16,1.73,2.56,1.73,4.23c0,1.67-0.57,3.08-1.73,4.24c-1.16,1.16-2.57,1.73-4.24,1.73H82.81
					c-0.4,0-0.76,0.23-0.92,0.6l-6.73,15.37c-0.29,0.66,0.19,1.4,0.92,1.4h26.16c1.67,0,3.08,0.59,4.24,1.74
					c1.16,1.16,1.73,2.57,1.73,4.23c0,1.67-0.57,3.08-1.73,4.24c-1.16,1.16-2.57,1.73-4.24,1.73H73.38c-0.55,0-1-0.45-1-1V56.8
					c0-1.05-1.41-1.39-1.88-0.46c-1.95,3.85-4.56,7.43-7.83,10.7c-2.26,2.26-4.66,4.2-7.19,5.82c-0.29,0.18-0.46,0.49-0.46,0.83v1.3
					c0,0.55,0.45,1,1,1h46.22c6.44,0,11.94-2.27,16.5-6.84c0.47-0.47,0.92-0.95,1.32-1.44c3.68-4.26,5.52-9.26,5.52-15.05
					C125.57,48.14,123.65,43.47,119.79,38.63z"/>
			</g>
		</g>
	</g>
</g>
</svg>
